<?xml version="1.0" encoding="utf-8"?>
<svg viewBox="0 0 230 53" color-interpolation-filters="sRGB" style="margin: auto;" xmlns="http://www.w3.org/2000/svg">
  <g data-v-6805eed4="" fill="#2bbdc4" class="icon-text-wrapper icon-svg-group iconsvg" transform="matrix(1, 0, 0, 1, 0.940003, 2.034374)">
    <g class="iconsvg-imagesvg" transform="translate(0,0)">
      <g>
        <rect fill="#2bbdc4" fill-opacity="0" stroke-width="2" x="0" y="0" width="47.399999999999984" height="47.399999999999984" class="image-rect"/>
        <svg filter="url(#colors4618908385)" x="0" y="0" width="47.399999999999984" height="47.399999999999984" filtersec="colorsf623961150" class="image-svg-svg primary" style="overflow: visible;">
          <svg xmlns="http://www.w3.org/2000/svg" version="1.1" x="0px" y="0px" viewBox="5 5 90 90" enable-background="new 0 0 100 100">
            <rect x="5" y="32" fill-rule="evenodd" clip-rule="evenodd" width="90" height="4"/>
            <rect x="5" y="91" fill-rule="evenodd" clip-rule="evenodd" width="90" height="4"/>
            <path fill-rule="evenodd" clip-rule="evenodd" d="M10,30h80L50,5L10,30L10,30z M27.434,25L50,10.896L72.566,25H27.434z"/>
            <path fill-rule="evenodd" clip-rule="evenodd" d="M44.13,89c0.213-0.626,0.363-1.271,0.438-1.942h-9.876  c-0.04-0.317-0.061-0.641-0.061-0.972c0-0.33,0.021-0.653,0.061-0.971h9.876c-0.146-1.32-0.584-2.542-1.225-3.704h-7.283  c0.063-0.103,0.126-0.204,0.191-0.306c0.362-0.562,0.766-1.106,1.197-1.637h4.615c-0.667-0.878-1.431-1.738-2.249-2.599  c0.233-0.237,0.467-0.473,0.699-0.704c0.223-0.224,0.447-0.448,0.669-0.675c1.242,1.305,2.381,2.626,3.293,4.041  c1.277,1.979,2.087,4.108,2.087,6.554c0,1.023-0.142,1.99-0.399,2.914H44.13L44.13,89z M37.098,74.095  c-1.242-1.304-2.381-2.626-3.293-4.041c-1.276-1.979-2.087-4.107-2.087-6.554s0.811-4.574,2.087-6.555  c1.236-1.916,2.887-3.663,4.649-5.426c1.328-1.328,2.585-2.639,3.61-3.989h-4.615c-0.431-0.53-0.835-1.075-1.197-1.637  c-0.065-0.101-0.129-0.203-0.191-0.306h7.283c0.641-1.163,1.079-2.384,1.225-3.704h-9.876c-0.04-0.317-0.061-0.641-0.061-0.971  c0-0.33,0.021-0.654,0.061-0.971h9.876c-0.074-0.671-0.224-1.317-0.438-1.942h2.034c0.258,0.924,0.399,1.891,0.399,2.914  c0,2.446-0.81,4.575-2.087,6.554c-1.236,1.917-2.887,3.664-4.649,5.425c-1.328,1.328-2.585,2.64-3.61,3.989h4.616  c0.431,0.53,0.835,1.075,1.197,1.637c0.065,0.102,0.129,0.203,0.191,0.306h-7.283c-0.641,1.163-1.079,2.385-1.225,3.704h9.876  c0.04,0.317,0.061,0.642,0.061,0.972s-0.021,0.653-0.061,0.971h-9.876c0.146,1.32,0.584,2.542,1.225,3.704h7.282  c-0.062,0.103-0.126,0.205-0.191,0.306c-0.362,0.562-0.766,1.106-1.197,1.637h-4.615c0.666,0.878,1.431,1.738,2.249,2.599  c-0.234,0.237-0.467,0.473-0.699,0.704C37.544,73.644,37.32,73.868,37.098,74.095L37.098,74.095z M34.151,38h-2.033  c-0.258,0.924-0.4,1.891-0.4,2.914c0,2.446,0.811,4.575,2.087,6.554c0.912,1.415,2.051,2.737,3.293,4.041  c0.223-0.227,0.446-0.451,0.67-0.675c0.231-0.231,0.465-0.466,0.699-0.703c-1.161-1.22-2.213-2.442-3.03-3.709  c-1.086-1.685-1.776-3.478-1.776-5.507C33.66,39.887,33.836,38.921,34.151,38L34.151,38z M32.118,89h2.033  c-0.314-0.922-0.491-1.888-0.491-2.914c0-2.029,0.69-3.822,1.776-5.507c1.127-1.748,2.702-3.41,4.391-5.1  c1.762-1.762,3.414-3.509,4.649-5.426c1.277-1.979,2.087-4.107,2.087-6.554s-0.81-4.574-2.087-6.555  c-0.912-1.414-2.051-2.736-3.293-4.041c-0.223,0.228-0.446,0.452-0.669,0.676c-0.232,0.231-0.465,0.466-0.699,0.703  c1.161,1.22,2.213,2.442,3.03,3.709c1.086,1.686,1.776,3.478,1.776,5.508c0,2.029-0.69,3.822-1.776,5.507  c-1.127,1.748-2.702,3.41-4.392,5.1c-1.762,1.763-3.414,3.509-4.649,5.426c-1.276,1.979-2.087,4.108-2.087,6.554  C31.718,87.109,31.859,88.076,32.118,89z"/>
            <path fill-rule="evenodd" clip-rule="evenodd" d="M65.849,89c0.213-0.626,0.363-1.271,0.438-1.942h-9.877  c-0.039-0.317-0.06-0.641-0.06-0.972c0-0.33,0.021-0.653,0.06-0.971h9.877c-0.146-1.32-0.585-2.542-1.225-3.704h-7.283  c0.063-0.103,0.126-0.204,0.191-0.306c0.362-0.562,0.767-1.106,1.197-1.637h4.615c-0.666-0.878-1.431-1.738-2.249-2.599  c0.233-0.237,0.467-0.473,0.699-0.704c0.223-0.224,0.446-0.448,0.669-0.675c1.243,1.305,2.381,2.626,3.293,4.041  c1.276,1.979,2.087,4.108,2.087,6.554c0,1.023-0.142,1.99-0.399,2.914H65.849L65.849,89z M58.815,74.095  c-1.242-1.304-2.381-2.626-3.293-4.041c-1.276-1.979-2.087-4.107-2.087-6.554s0.811-4.574,2.087-6.555  c1.236-1.916,2.888-3.663,4.649-5.426c1.328-1.328,2.586-2.639,3.61-3.989h-4.615c-0.431-0.53-0.835-1.075-1.197-1.637  c-0.065-0.101-0.129-0.203-0.191-0.306h7.283c0.64-1.163,1.078-2.384,1.225-3.704h-9.877c-0.039-0.317-0.06-0.641-0.06-0.971  c0-0.33,0.021-0.654,0.06-0.971h9.877c-0.074-0.671-0.225-1.317-0.438-1.942h2.033c0.258,0.924,0.399,1.891,0.399,2.914  c0,2.446-0.811,4.575-2.087,6.554c-1.235,1.917-2.887,3.664-4.649,5.425c-1.328,1.328-2.585,2.64-3.61,3.989h4.616  c0.431,0.53,0.835,1.075,1.196,1.637c0.065,0.102,0.129,0.203,0.191,0.306h-7.282c-0.641,1.163-1.079,2.385-1.225,3.704h9.877  c0.039,0.317,0.06,0.642,0.06,0.972s-0.021,0.653-0.06,0.971h-9.877c0.146,1.32,0.584,2.542,1.225,3.704h7.282  c-0.063,0.103-0.126,0.205-0.191,0.306c-0.362,0.562-0.766,1.106-1.197,1.637h-4.614c0.666,0.878,1.431,1.738,2.249,2.599  c-0.234,0.237-0.468,0.473-0.699,0.704C59.262,73.644,59.038,73.868,58.815,74.095L58.815,74.095z M55.869,38h-2.033  c-0.259,0.924-0.4,1.891-0.4,2.914c0,2.446,0.811,4.575,2.087,6.554c0.912,1.415,2.051,2.737,3.293,4.041  c0.223-0.227,0.446-0.451,0.67-0.675c0.231-0.231,0.465-0.466,0.699-0.703c-1.161-1.22-2.214-2.442-3.03-3.709  c-1.087-1.685-1.776-3.478-1.776-5.507C55.378,39.887,55.555,38.921,55.869,38L55.869,38z M53.836,89h2.033  c-0.314-0.922-0.491-1.888-0.491-2.914c0-2.029,0.689-3.822,1.776-5.507c1.127-1.748,2.701-3.41,4.391-5.1  c1.763-1.762,3.414-3.509,4.649-5.426c1.276-1.979,2.087-4.107,2.087-6.554s-0.811-4.574-2.087-6.555  c-0.912-1.414-2.05-2.736-3.293-4.041c-0.223,0.228-0.446,0.452-0.669,0.676c-0.232,0.231-0.466,0.466-0.699,0.703  c1.16,1.22,2.213,2.442,3.03,3.709c1.086,1.686,1.775,3.478,1.775,5.508c0,2.029-0.689,3.822-1.775,5.507  c-1.127,1.748-2.702,3.41-4.392,5.1c-1.762,1.763-3.413,3.509-4.649,5.426c-1.276,1.979-2.087,4.108-2.087,6.554  C53.436,87.109,53.577,88.076,53.836,89z"/>
            <path fill-rule="evenodd" clip-rule="evenodd" d="M22.412,89c0.214-0.626,0.364-1.271,0.438-1.942h-9.876  c-0.04-0.317-0.061-0.641-0.061-0.972c0-0.33,0.021-0.653,0.061-0.971h9.876c-0.146-1.32-0.584-2.542-1.225-3.704h-7.283  c0.062-0.103,0.126-0.204,0.191-0.306c0.362-0.562,0.766-1.106,1.197-1.637h4.616c-0.667-0.878-1.431-1.738-2.25-2.599  c0.234-0.237,0.467-0.473,0.699-0.704c0.224-0.224,0.447-0.448,0.67-0.675c1.242,1.305,2.381,2.626,3.293,4.041  c1.276,1.979,2.087,4.108,2.087,6.554c0,1.023-0.142,1.99-0.4,2.914H22.412L22.412,89z M15.38,74.095  c-1.243-1.304-2.381-2.626-3.293-4.041C10.81,68.074,10,65.946,10,63.5s0.81-4.574,2.087-6.555c1.236-1.916,2.887-3.663,4.649-5.426  c1.328-1.328,2.585-2.639,3.61-3.989h-4.616c-0.431-0.53-0.835-1.075-1.197-1.637c-0.065-0.101-0.129-0.203-0.191-0.306h7.283  c0.641-1.163,1.079-2.384,1.225-3.704h-9.876c-0.04-0.317-0.061-0.641-0.061-0.971c0-0.33,0.021-0.654,0.061-0.971h9.876  c-0.074-0.671-0.224-1.317-0.438-1.942h2.034c0.258,0.924,0.4,1.891,0.4,2.914c0,2.446-0.811,4.575-2.087,6.554  c-1.236,1.917-2.887,3.664-4.649,5.425c-1.328,1.328-2.585,2.64-3.61,3.989h4.615c0.431,0.53,0.835,1.075,1.197,1.637  c0.065,0.102,0.129,0.203,0.191,0.306H13.22c-0.641,1.163-1.079,2.385-1.225,3.704h9.876c0.04,0.317,0.061,0.642,0.061,0.972  s-0.021,0.653-0.061,0.971h-9.876c0.146,1.32,0.584,2.542,1.225,3.704h7.282c-0.062,0.103-0.126,0.205-0.191,0.306  c-0.362,0.562-0.767,1.106-1.197,1.637h-4.615c0.667,0.878,1.431,1.738,2.249,2.599c-0.233,0.237-0.467,0.473-0.698,0.704  C15.826,73.644,15.603,73.868,15.38,74.095L15.38,74.095z M12.433,38h-2.034C10.142,38.924,10,39.891,10,40.913  c0,2.446,0.81,4.575,2.087,6.554c0.912,1.415,2.05,2.737,3.293,4.041c0.223-0.227,0.446-0.451,0.67-0.675  c0.231-0.231,0.465-0.466,0.698-0.703c-1.161-1.22-2.213-2.442-3.03-3.709c-1.086-1.685-1.776-3.478-1.776-5.507  C11.942,39.887,12.118,38.921,12.433,38L12.433,38z M10.399,89h2.034c-0.315-0.922-0.491-1.888-0.491-2.914  c0-2.029,0.69-3.822,1.776-5.507c1.127-1.748,2.702-3.41,4.391-5.1c1.762-1.762,3.414-3.509,4.649-5.426  c1.276-1.979,2.087-4.107,2.087-6.554s-0.811-4.574-2.087-6.555c-0.912-1.414-2.051-2.736-3.293-4.041  c-0.223,0.228-0.446,0.452-0.67,0.676c-0.231,0.231-0.465,0.466-0.699,0.703c1.161,1.22,2.213,2.442,3.03,3.709  c1.086,1.686,1.776,3.478,1.776,5.508c0,2.029-0.69,3.822-1.776,5.507c-1.127,1.748-2.702,3.41-4.391,5.1  c-1.762,1.763-3.414,3.509-4.649,5.426C10.81,81.512,10,83.641,10,86.086C10,87.109,10.142,88.076,10.399,89z"/>
            <path fill-rule="evenodd" clip-rule="evenodd" d="M87.566,89c0.214-0.626,0.363-1.271,0.438-1.942h-9.877  c-0.039-0.317-0.06-0.641-0.06-0.972c0-0.33,0.021-0.653,0.06-0.971h9.877c-0.146-1.32-0.584-2.542-1.225-3.704h-7.282  c0.062-0.103,0.126-0.204,0.191-0.306c0.361-0.562,0.766-1.106,1.196-1.637h4.616c-0.667-0.878-1.432-1.738-2.25-2.599  c0.233-0.237,0.468-0.473,0.699-0.704c0.224-0.224,0.447-0.448,0.67-0.675c1.242,1.305,2.381,2.626,3.292,4.041  C89.189,81.512,90,83.641,90,86.086c0,1.023-0.142,1.99-0.4,2.914H87.566L87.566,89z M80.534,74.095  c-1.243-1.304-2.381-2.626-3.293-4.041c-1.277-1.979-2.087-4.107-2.087-6.554s0.81-4.574,2.087-6.555  c1.235-1.916,2.887-3.663,4.648-5.426c1.328-1.328,2.586-2.639,3.611-3.989h-4.616c-0.431-0.53-0.835-1.075-1.196-1.637  c-0.065-0.101-0.13-0.203-0.191-0.306h7.282c0.641-1.163,1.079-2.384,1.225-3.704h-9.877c-0.039-0.317-0.06-0.641-0.06-0.971  c0-0.33,0.021-0.654,0.06-0.971h9.877C87.93,39.271,87.78,38.625,87.566,38H89.6c0.259,0.924,0.4,1.891,0.4,2.914  c0,2.446-0.811,4.575-2.088,6.554c-1.235,1.917-2.887,3.664-4.648,5.425c-1.328,1.328-2.586,2.64-3.61,3.989h4.615  c0.431,0.53,0.835,1.075,1.197,1.637c0.065,0.102,0.129,0.203,0.191,0.306h-7.283c-0.641,1.163-1.079,2.385-1.225,3.704h9.877  c0.039,0.317,0.06,0.642,0.06,0.972s-0.021,0.653-0.06,0.971h-9.877c0.146,1.32,0.585,2.542,1.225,3.704h7.282  c-0.062,0.103-0.125,0.205-0.19,0.306c-0.362,0.562-0.767,1.106-1.197,1.637h-4.615c0.666,0.878,1.431,1.738,2.249,2.599  c-0.233,0.237-0.468,0.473-0.699,0.704C80.979,73.644,80.756,73.868,80.534,74.095L80.534,74.095z M77.587,38h-2.033  c-0.258,0.924-0.399,1.891-0.399,2.914c0,2.446,0.81,4.575,2.087,6.554c0.912,1.415,2.05,2.737,3.293,4.041  c0.222-0.227,0.445-0.451,0.669-0.675c0.231-0.231,0.466-0.466,0.699-0.703c-1.161-1.22-2.213-2.442-3.03-3.709  c-1.087-1.685-1.776-3.478-1.776-5.507C77.096,39.887,77.272,38.921,77.587,38L77.587,38z M75.554,89h2.033  c-0.314-0.922-0.491-1.888-0.491-2.914c0-2.029,0.689-3.822,1.776-5.507c1.127-1.748,2.702-3.41,4.392-5.1  c1.762-1.762,3.413-3.509,4.648-5.426C89.189,68.074,90,65.946,90,63.5s-0.811-4.574-2.088-6.555  c-0.911-1.414-2.05-2.736-3.292-4.041c-0.223,0.228-0.446,0.452-0.67,0.676c-0.231,0.231-0.465,0.466-0.699,0.703  c1.161,1.22,2.214,2.442,3.03,3.709c1.087,1.686,1.776,3.478,1.776,5.508c0,2.029-0.689,3.822-1.776,5.507  c-1.127,1.748-2.701,3.41-4.392,5.1c-1.762,1.763-3.413,3.509-4.648,5.426c-1.277,1.979-2.087,4.108-2.087,6.554  C75.154,87.109,75.296,88.076,75.554,89z"/>
          </svg>
        </svg>
        <defs>
          <filter id="colors4618908385">
            <feColorMatrix type="matrix" values="0 0 0 0 0.16796875  0 0 0 0 0.73828125  0 0 0 0 0.765625  0 0 0 1 0" class="icon-fecolormatrix"/>
          </filter>
        </defs>
      </g>
    </g>
    <g transform="translate(52.400001525878906,0.4687519073486328)">
      <g data-gra="path-name" fill-rule="" class="tp-name iconsvg-namesvg" transform="translate(0,0)">
        <g transform="scale(1)">
          <g>
            <path d="M31.86 1.46L31.86 1.46 4.35 1.46Q2.16 1.46 2.16 0.1L2.16 0.1Q2.16-1.25 4.35-1.25L4.35-1.25 15.81-1.25 15.81-9.68 8.15-9.68Q5.99-9.68 5.99-11.04L5.99-11.04Q5.99-12.36 8.15-12.36L8.15-12.36 15.81-12.36 15.81-19.74 9.44-19.74Q8.43-17.76 7.1-15.88L7.1-15.88Q6.34-14.83 5.08-14.83L5.08-14.83Q4.25-14.83 3.36-15.44 2.47-16.05 2.47-16.3L2.47-16.3Q2.47-16.51 2.93-17.03L2.93-17.03Q5.68-20.72 7.56-26.67L7.56-26.67Q7.97-28.21 9.61-28.21L9.61-28.21Q10.06-28.21 10.62-28.07L10.62-28.07Q12.22-27.68 12.22-26.85L12.22-26.85Q12.22-26.33 10.69-22.5L10.69-22.5 15.81-22.5 15.81-27.51Q15.81-28.97 18.11-28.97L18.11-28.97Q20.41-28.97 20.41-27.51L20.41-27.51 20.41-22.5 30.19-22.5Q32.39-22.5 32.39-21.14L32.39-21.14Q32.39-19.74 30.19-19.74L30.19-19.74 20.41-19.74 20.41-12.36 28.94-12.36Q31.1-12.36 31.1-11.04L31.1-11.04Q31.1-9.68 28.94-9.68L28.94-9.68 20.41-9.68 20.41-1.25 31.86-1.25Q34.06-1.25 34.06 0.1L34.06 0.1Q34.06 1.46 31.86 1.46ZM44.26 2.44L44.26 2.44Q42.1 2.44 42.1 1.15L42.1 1.15 42.1-14.87Q42.62-15.6 42.62-15.71L42.62-15.71Q42.52-15.71 41.58-14.66 40.64-13.62 39.56-13.62L39.56-13.62Q39.49-13.62 38.88-13.65 38.27-13.69 37.61-14.87L37.61-14.87Q37.4-15.29 37.4-15.57L37.4-15.57Q37.4-15.88 37.92-16.4L37.92-16.4Q42.07-20.86 44.85-27.3L44.85-27.3Q45.41-28.59 46.77-28.59L46.77-28.59Q47.32-28.59 48.02-28.38L48.02-28.38Q49.31-27.96 49.31-27.34L49.31-27.34Q49.31-27.2 49.24-27.06L49.24-27.06Q48.2-24.69 46.38-21.49L46.38-21.49 46.38 1.15Q46.38 2.44 44.26 2.44ZM65.57 1.01L65.57 1.01 52.48 1.01Q50.98 1.01 50.28 0.31 49.59-0.38 49.59-1.04L49.59-1.04 49.59-6.02Q49.59-6.69 50.28-7.38 50.98-8.08 52.48-8.08L52.48-8.08 65.57-8.08Q67.07-8.08 67.77-7.38 68.46-6.69 68.46-6.02L68.46-6.02 68.46-1.04Q68.46-0.38 67.77 0.31 67.07 1.01 65.57 1.01ZM54.11-1.18L63.8-1.18Q64-1.18 64-2.23L64-2.23 64-4.91Q64-5.95 63.8-5.95L63.8-5.95 54.11-5.95Q53.91-5.95 53.91-4.91L53.91-4.91 53.91-2.23Q53.91-1.18 54.11-1.18L54.11-1.18ZM66.06-10.76L66.06-10.76 51.92-10.76Q50.01-10.76 50.01-11.84L50.01-11.84Q50.01-12.92 51.92-12.92L51.92-12.92 66.06-12.92Q67.97-12.92 67.97-11.84L67.97-11.84Q67.97-10.76 66.06-10.76ZM66.16-15.6L66.16-15.6 51.92-15.6Q50.01-15.6 50.01-16.72L50.01-16.72Q50.01-17.79 51.92-17.79L51.92-17.79 66.16-17.79Q68.08-17.79 68.08-16.72L68.08-16.72Q68.08-15.6 66.16-15.6ZM68.64-20.41L68.64-20.41 49.2-20.41Q47.25-20.41 47.25-21.56L47.25-21.56Q47.25-22.67 49.2-22.67L49.2-22.67 68.64-22.67Q70.59-22.67 70.59-21.56L70.59-21.56Q70.59-20.41 68.64-20.41ZM65.54-25.32L65.54-25.32 52.41-25.32Q50.49-25.32 50.49-26.43L50.49-26.43Q50.49-27.51 52.41-27.51L52.41-27.51 65.54-27.51Q67.45-27.51 67.45-26.43L67.45-26.43Q67.45-25.32 65.54-25.32ZM85.21 2.51L85.21 2.51Q82.57 2.51 82.01 1.08L82.01 1.08 81.97 0.84Q81.97 0.49 82.29 0.24L82.29 0.24Q83.12-0.38 84.79-0.38L84.79-0.38 86.5-0.35Q87.13-0.35 87.48-0.37 87.82-0.38 87.82-1.53L87.82-1.53 87.82-26.99Q87.82-28.52 90.19-28.52L90.19-28.52Q92.56-28.52 92.56-26.99L92.56-26.99 92.56-1.53Q92.56-0.17 92.18 0.56L92.18 0.56Q91.24 2.4 85.21 2.51ZM103.74-4.98L103.74-4.98Q102.17-4.98 101.89-6.3L101.89-6.3Q101.27-8.74 99.94-12.01 98.62-15.29 96.81-18.73L96.81-18.73Q96.7-18.94 96.7-19.15L96.7-19.15Q96.7-19.78 97.92-20.23L97.92-20.23Q98.69-20.51 99.32-20.51L99.32-20.51Q100.6-20.51 101.27-19.36L101.27-19.36Q105.27-12.43 106.77-6.69L106.77-6.69 106.8-6.48Q106.8-5.92 105.41-5.36L105.41-5.36Q104.47-4.98 103.74-4.98ZM76.72-5.47L76.72-5.47Q75.98-5.47 75.11-5.95L75.11-5.95Q74.07-6.51 74.07-6.89L74.07-6.89Q74.07-7.21 74.42-7.73L74.42-7.73Q77.13-11.98 78.53-18.84L78.53-18.84Q78.84-20.3 80.55-20.3L80.55-20.3Q81-20.3 81.56-20.2L81.56-20.2Q83.44-19.88 83.44-18.87L83.44-18.87 83.4-18.6Q81.52-10.83 78.73-6.62L78.73-6.62Q77.93-5.47 76.72-5.47ZM126.02 2.54L126.02 2.54Q123.69 2.54 123.69 1.04L123.69 1.04 123.69-12.12Q120.56-6.58 114.18-2.02L114.18-2.02Q113.21-1.43 112.34-1.43L112.34-1.43Q112.2-1.43 111.63-1.5 111.05-1.57 110.35-2.4L110.35-2.4Q109.87-2.96 109.87-3.24L109.87-3.24Q109.87-3.55 110.88-4.18L110.88-4.18Q118.02-9.05 122.47-17.9L122.47-17.9 112.76-17.9Q110.53-17.9 110.53-19.29L110.53-19.29Q110.53-20.68 112.76-20.68L112.76-20.68 123.69-20.68 123.69-27.48Q123.69-28.97 126.02-28.97L126.02-28.97Q128.36-28.97 128.36-27.48L128.36-27.48 128.36-20.68 139.33-20.68Q141.56-20.68 141.56-19.29L141.56-19.29Q141.56-17.9 139.33-17.9L139.33-17.9 129.4-17.9Q133.93-9.37 141.14-4.32L141.14-4.32Q142.15-3.69 142.15-3.41L142.15-3.41Q142.15-3.13 141.66-2.54L141.66-2.54Q140.79-1.53 139.61-1.5L139.61-1.5Q138.73-1.5 137.76-2.16L137.76-2.16Q131.74-6.58 128.36-12.29L128.36-12.29 128.36 1.04Q128.36 2.54 126.02 2.54ZM148.45 2.09L148.45 2.09Q147.79 2.09 146.88 1.57 145.98 1.04 145.98 0.7L145.98 0.7Q145.98 0.38 146.26-0.14L146.26-0.14Q148-3.8 148.69-9.12L148.69-9.12Q149.15-12.68 149.15-17.76L149.15-17.76 149.15-25.28Q149.15-25.94 149.84-26.64 150.54-27.34 152.04-27.34L152.04-27.34 173.11-27.34Q174.6-27.34 175.3-26.64 176-25.94 176-25.28L176-25.28 176-21.49Q176-20.82 175.3-20.13 174.6-19.43 173.11-19.43L173.11-19.43 153.6-19.43 153.6-17.1 175.02-17.1Q176.94-17.1 176.94-16.02L176.94-16.02Q176.94-14.9 175.02-14.9L175.02-14.9 169.66-14.9Q173.91-12.08 176.07-9.96L176.07-9.96Q176.38-9.65 176.45-9.65L176.45-9.65Q176.34-9.37 175.61-8.85L175.61-8.85Q174.67-8.18 173.87-8.18L173.87-8.18Q172.9-8.18 172.1-9.12L172.1-9.12 171.5-9.65 166.56-9.44 166.56-6.34 173.38-6.34Q175.3-6.34 175.3-5.26L175.3-5.26Q175.3-4.18 173.38-4.18L173.38-4.18 166.56-4.18 166.56-0.59 175.93-0.59Q177.88-0.59 177.88 0.52L177.88 0.52Q177.88 1.64 175.93 1.64L175.93 1.64 153.15 1.64Q151.2 1.64 151.2 0.52L151.2 0.52Q151.2-0.59 153.15-0.59L153.15-0.59 162.17-0.59 162.17-4.18 155.59-4.18Q153.67-4.18 153.67-5.26L153.67-5.26Q153.67-6.34 155.59-6.34L155.59-6.34 162.17-6.34 162.17-9.26 154.72-8.98Q152.98-8.98 152.98-10.1L152.98-10.1Q152.98-11.11 154.68-11.11L154.68-11.11Q155.1-11.14 155.97-11.14L155.97-11.14Q156.81-11.6 156.95-11.6L156.95-11.6Q157.75-12.81 158.86-14.9L158.86-14.9 153.57-14.9Q153.22-4.77 150.5 0.84L150.5 0.84Q149.81 2.09 148.45 2.09ZM160.92-11.28L160.92-11.28 168.54-11.53Q168.89-11.87 168.89-11.94L168.89-11.94Q168.89-11.98 168.86-11.98L168.86-11.98Q168.4-12.36 168-12.48 167.6-12.61 167.6-12.95L167.6-12.95Q166.87-13.48 166.87-13.51L166.87-13.51Q166.87-13.55 168.93-14.9L168.93-14.9 163.42-14.9 163.01-14.35Q161.93-12.71 160.92-11.28ZM153.6-21.66L171.29-21.66Q171.5-21.66 171.5-22.7L171.5-22.7 171.5-24.06Q171.5-25.11 171.29-25.11L171.29-25.11 153.81-25.11Q153.6-25.11 153.6-24.06L153.6-24.06 153.6-21.66Z" transform="translate(-2.1600000858306885, 28.969999313354492)"/>
          </g>
        </g>
      </g>
      <g data-gra="path-slogan" fill-rule="" class="tp-slogan iconsvg-slogansvg" fill="#2bbdc4" transform="translate(5,39.5099983215332)">
        <rect x="0" height="1" y="3.9750003814697266" width="36.2400016784668"/>
        <rect height="1" y="3.9750003814697266" width="36.2400016784668" x="129.47999954223633"/>
        <g transform="translate(39.2400016784668,0)">
          <g transform="scale(1)">
            <path d="M4.13-7.64L2.06-7.64L2.06-4.97L4.13-4.97Q5.95-4.92 5.91-6.38L5.91-6.38Q5.91-7.64 4.13-7.64L4.13-7.64ZM4.59 0L0.89 0L0.89-8.58L4.69-8.58Q6.98-8.48 7.08-6.42L7.08-6.42Q7.08-5.16 5.95-4.64L5.95-4.64Q7.55-4.08 7.55-2.53L7.55-2.53Q7.41-0.09 4.59 0L4.59 0ZM4.31-3.98L2.06-3.98L2.06-0.98L4.55-0.98Q6.33-1.03 6.38-2.53L6.38-2.53Q6.38-3.98 4.31-3.98L4.31-3.98ZM9.05-8.58L10.22-8.58L10.22 0L9.05 0L9.05-8.58ZM18.98-4.27L18.98-4.27Q18.80-7.64 15.98-7.83L15.98-7.83Q13.13-7.69 12.98-4.27L12.98-4.27Q13.13-0.94 15.98-0.80L15.98-0.80Q18.80-0.98 18.98-4.27ZM20.16-4.27L20.16-4.27Q19.88 0 15.98 0.14L15.98 0.14Q12.05 0 11.77-4.27L11.77-4.27Q12-8.72 15.98-8.81L15.98-8.81Q19.88-8.67 20.16-4.27ZM21.70-8.58L22.88-8.58L22.88 0L21.70 0L21.70-8.58ZM26.25-8.58L30.56-1.64L30.56-8.58L31.69-8.58L31.69 0L30.38 0L26.02-6.94L25.97-6.94L25.97 0L24.84 0L24.84-8.58L26.25-8.58ZM39-3.89L34.78-3.89L34.78 0L33.61 0L33.61-8.58L39.56-8.58L39.56-7.59L34.78-7.59L34.78-4.92L39-4.92L39-3.89ZM47.53-4.27L47.53-4.27Q47.34-7.64 44.53-7.83L44.53-7.83Q41.67-7.69 41.53-4.27L41.53-4.27Q41.67-0.94 44.53-0.80L44.53-0.80Q47.34-0.98 47.53-4.27ZM48.70-4.27L48.70-4.27Q48.42 0 44.53 0.14L44.53 0.14Q40.59 0 40.31-4.27L40.31-4.27Q40.55-8.72 44.53-8.81L44.53-8.81Q48.42-8.67 48.70-4.27ZM60.56-6.05L60.56-6.05L59.44-6.05Q59.02-7.78 57.05-7.83L57.05-7.83Q54.33-7.69 54.23-4.36L54.23-4.36Q54.23-0.80 57.09-0.80L57.09-0.80Q59.06-0.84 59.53-3.19L59.53-3.19L60.66-3.19Q60.14 0.05 56.86 0.14L56.86 0.14Q53.11 0 53.02-4.31L53.02-4.31Q53.20-8.63 57.05-8.81L57.05-8.81Q60.09-8.72 60.56-6.05ZM67.69 0L66.84-2.48L63.38-2.48L62.48 0L61.31 0L64.55-8.58L65.86-8.58L68.95 0L67.69 0ZM65.11-7.31L63.75-3.52L66.42-3.52L65.16-7.31L65.11-7.31ZM73.22-7.64L71.16-7.64L71.16-4.97L73.22-4.97Q75.05-4.92 75-6.38L75-6.38Q75-7.64 73.22-7.64L73.22-7.64ZM73.69 0L69.98 0L69.98-8.58L73.78-8.58Q76.08-8.48 76.17-6.42L76.17-6.42Q76.17-5.16 75.05-4.64L75.05-4.64Q76.64-4.08 76.64-2.53L76.64-2.53Q76.50-0.09 73.69 0L73.69 0ZM73.41-3.98L71.16-3.98L71.16-0.98L73.64-0.98Q75.42-1.03 75.47-2.53L75.47-2.53Q75.47-3.98 73.41-3.98L73.41-3.98ZM78.14-8.58L79.31-8.58L79.31 0L78.14 0L78.14-8.58ZM82.69-8.58L87-1.64L87-8.58L88.13-8.58L88.13 0L86.81 0L82.45-6.94L82.41-6.94L82.41 0L81.28 0L81.28-8.58L82.69-8.58Z" transform="translate(-0.890625, 8.8125)"/>
          </g>
        </g>
      </g>
    </g>
  </g>
</svg>